<svg width="512" height="512" viewBox="0 0 512 512" fill="none" xmlns="http://www.w3.org/2000/svg">
<g id="android-icon-foreground">
<g id="Assinatura do isotipo" clip-path="url(#clip0_490_2)">
<g id="Group">
<path id="Vector" d="M309.625 192.185C304.934 203.09 300.244 213.996 295.554 224.901C294.234 227.993 292.915 231.085 291.595 234.177C291.131 235.312 290.453 236.96 289.616 238.955C288.567 241.458 288.355 241.916 288.071 242.425C288.071 242.425 286.741 245.189 283.769 247.238C279.268 250.341 273.967 250.26 268 250.314C269.437 246.789 290.858 194.093 291.664 192.185H309.625Z" stroke="#42CF00" stroke-width="3" stroke-linecap="round" stroke-linejoin="round"/>
<path id="Vector_2" d="M269.5 227.797H255.093L238.291 194.942C237.638 193.671 238.566 192.163 240.002 192.163H251.2C253.423 192.163 255.454 193.411 256.448 195.387L271.218 225.033C271.857 226.303 270.928 227.797 269.5 227.797Z" stroke="#42CF00" stroke-width="3" stroke-linecap="round" stroke-linejoin="round"/>
<path id="Vector_3" d="M238.078 319.769C242.768 308.863 247.459 297.958 252.149 287.052C253.468 283.96 254.788 280.869 256.108 277.777C256.571 276.642 257.25 274.994 258.087 272.998C259.136 270.496 259.348 270.038 259.631 269.529C259.631 269.529 260.962 266.765 263.934 264.716C268.435 261.613 273.736 261.694 279.703 261.64C278.265 265.164 256.844 317.861 256.038 319.769H238.078Z" stroke="#42CF00" stroke-width="3" stroke-linecap="round" stroke-linejoin="round"/>
<path id="Vector_4" d="M278.203 284.157H292.61L309.412 317.012C310.065 318.283 309.137 319.791 307.701 319.791H296.503C294.28 319.791 292.249 318.543 291.255 316.567L276.485 286.921C275.846 285.651 276.775 284.157 278.203 284.157Z" stroke="#42CF00" stroke-width="3" stroke-linecap="round" stroke-linejoin="round"/>
<path id="Vector_5" d="M199.459 217.586C210.43 222.249 221.4 226.911 232.371 231.574C235.481 232.885 238.591 234.197 241.702 235.509C242.843 235.97 244.501 236.645 246.508 237.476C249.026 238.519 249.487 238.73 249.999 239.012C249.999 239.012 252.779 240.334 254.84 243.289C257.962 247.763 257.88 253.033 257.935 258.964C254.389 257.536 201.379 236.242 199.459 235.44V217.586Z" fill="#42CF00"/>
<path id="Vector_6" d="M235.284 257.472V271.794L202.233 288.496C200.955 289.146 199.438 288.223 199.438 286.796V275.664C199.438 273.454 200.693 271.435 202.681 270.447L232.504 255.764C233.781 255.129 235.284 256.053 235.284 257.472Z" fill="#42CF00"/>
</g>
</g>
</g>
<defs>
<clipPath id="clip0_490_2">
<rect width="113" height="129" fill="white" transform="translate(199.25 191.977)"/>
</clipPath>
</defs>
</svg>
